<svg width="100" height="100" viewBox="0 0 100 100" fill="none" xmlns="http://www.w3.org/2000/svg">
<g clip-path="url(#clip0_22_7)">
<circle cx="50" cy="50" r="50" fill="white"/>
<mask id="mask0_22_7" style="mask-type:alpha" maskUnits="userSpaceOnUse" x="10" y="10" width="80" height="80">
<rect x="10" y="10" width="80" height="80" fill="#D9D9D9"/>
</mask>
<g mask="url(#mask0_22_7)">
<path d="M63.75 20C69.3055 20 73.9583 22.0556 77.7083 26.1667C81.4583 30.2778 83.3333 35.1667 83.3333 40.8333C83.3333 41.8333 83.2777 42.8194 83.1666 43.7917C83.0555 44.7639 82.8611 45.7222 82.5833 46.6667H61.75L56.0833 38.1667C55.8055 37.7222 55.4166 37.3611 54.9166 37.0833C54.4166 36.8056 53.8888 36.6667 53.3333 36.6667C52.6111 36.6667 51.9583 36.8889 51.375 37.3333C50.7916 37.7778 50.3888 38.3333 50.1666 39L45.6666 52.5L42.75 48.1667C42.4722 47.7222 42.0833 47.3611 41.5833 47.0833C41.0833 46.8056 40.5555 46.6667 40 46.6667H17.4166C17.1388 45.7222 16.9444 44.7639 16.8333 43.7917C16.7222 42.8194 16.6666 41.8611 16.6666 40.9167C16.6666 35.1944 18.5277 30.2778 22.25 26.1667C25.9722 22.0556 30.6111 20 36.1666 20C38.8333 20 41.3472 20.5278 43.7083 21.5833C46.0694 22.6389 48.1666 24.1111 50 26C51.7777 24.1111 53.8472 22.6389 56.2083 21.5833C58.5694 20.5278 61.0833 20 63.75 20ZM50 80C49 80 48.0416 79.8194 47.125 79.4583C46.2083 79.0972 45.3888 78.5556 44.6666 77.8333L22.3333 55.4167C22 55.0833 21.6944 54.75 21.4166 54.4167C21.1388 54.0833 20.8611 53.7222 20.5833 53.3333H38.1666L43.8333 61.8333C44.1111 62.2778 44.5 62.6389 45 62.9167C45.5 63.1944 46.0277 63.3333 46.5833 63.3333C47.3055 63.3333 47.9722 63.1111 48.5833 62.6667C49.1944 62.2222 49.6111 61.6667 49.8333 61L54.3333 47.5L57.1666 51.8333C57.5 52.2778 57.9166 52.6389 58.4166 52.9167C58.9166 53.1944 59.4444 53.3333 60 53.3333H79.3333L77.6666 55.3333L55.25 77.8333C54.5277 78.5556 53.7222 79.0972 52.8333 79.4583C51.9444 79.8194 51 80 50 80Z" fill="#1351B4"/>
</g>
</g>
<defs>
<clipPath id="clip0_22_7">
<rect width="100" height="100" fill="white"/>
</clipPath>
</defs>
</svg>
