<svg width="26" height="24" viewBox="0 0 26 24" fill="none" xmlns="http://www.w3.org/2000/svg">
<mask id="mask0_53_91" style="mask-type:alpha" maskUnits="userSpaceOnUse" x="0" y="0" width="26" height="24">
<rect width="25.0315" height="24" fill="#D9D9D9"/>
</mask>
<g mask="url(#mask0_53_91)">
<path d="M12.5157 12C13.0894 12 13.5804 11.8042 13.9889 11.4125C14.3974 11.0208 14.6017 10.55 14.6017 10C14.6017 9.45 14.3974 8.97917 13.9889 8.5875C13.5804 8.19583 13.0894 8 12.5157 8C11.9421 8 11.451 8.19583 11.0425 8.5875C10.634 8.97917 10.4298 9.45 10.4298 10C10.4298 10.55 10.634 11.0208 11.0425 11.4125C11.451 11.8042 11.9421 12 12.5157 12ZM12.5157 19.35C14.6364 17.4833 16.2096 15.7875 17.2352 14.2625C18.2608 12.7375 18.7736 11.3833 18.7736 10.2C18.7736 8.38333 18.1695 6.89583 16.9614 5.7375C15.7533 4.57917 14.2714 4 12.5157 4C10.76 4 9.27813 4.57917 8.07001 5.7375C6.86189 6.89583 6.25783 8.38333 6.25783 10.2C6.25783 11.3833 6.77063 12.7375 7.79623 14.2625C8.82183 15.7875 10.395 17.4833 12.5157 19.35ZM12.5157 22C9.71705 19.7167 7.62675 17.5958 6.2448 15.6375C4.86285 13.6792 4.17188 11.8667 4.17188 10.2C4.17188 7.7 5.0106 5.70833 6.68806 4.225C8.36552 2.74167 10.3081 2 12.5157 2C14.7234 2 16.6659 2.74167 18.3434 4.225C20.0208 5.70833 20.8596 7.7 20.8596 10.2C20.8596 11.8667 20.1686 13.6792 18.7866 15.6375C17.4047 17.5958 15.3144 19.7167 12.5157 22Z" fill="#1351B4"/>
</g>
</svg>
